<svg width="400" height="400" viewBox="0 0 400 400" fill="none" xmlns="http://www.w3.org/2000/svg">
  <!-- 3D sphere made of horizontal curved lines -->
  <g transform="translate(200, 200)">
    <!-- Horizontal lines creating sphere illusion -->
    <ellipse cx="0" cy="-140" rx="40" ry="8" stroke="#2d2d2d" stroke-width="1.5" fill="none"/>
    <ellipse cx="0" cy="-120" rx="80" ry="12" stroke="#2d2d2d" stroke-width="1.5" fill="none"/>
    <ellipse cx="0" cy="-100" rx="110" ry="14" stroke="#2d2d2d" stroke-width="1.5" fill="none"/>
    <ellipse cx="0" cy="-80" rx="130" ry="15" stroke="#2d2d2d" stroke-width="1.5" fill="none"/>
    <ellipse cx="0" cy="-60" rx="142" ry="15" stroke="#2d2d2d" stroke-width="1.5" fill="none"/>
    <ellipse cx="0" cy="-40" rx="148" ry="14" stroke="#2d2d2d" stroke-width="1.5" fill="none"/>
    <ellipse cx="0" cy="-20" rx="150" ry="13" stroke="#2d2d2d" stroke-width="1.5" fill="none"/>
    <ellipse cx="0" cy="0" rx="150" ry="12" stroke="#2d2d2d" stroke-width="1.5" fill="none"/>
    <ellipse cx="0" cy="20" rx="150" ry="13" stroke="#2d2d2d" stroke-width="1.5" fill="none"/>
    <ellipse cx="0" cy="40" rx="148" ry="14" stroke="#2d2d2d" stroke-width="1.5" fill="none"/>
    <ellipse cx="0" cy="60" rx="142" ry="15" stroke="#2d2d2d" stroke-width="1.5" fill="none"/>
    <ellipse cx="0" cy="80" rx="130" ry="15" stroke="#2d2d2d" stroke-width="1.5" fill="none"/>
    <ellipse cx="0" cy="100" rx="110" ry="14" stroke="#2d2d2d" stroke-width="1.5" fill="none"/>
    <ellipse cx="0" cy="120" rx="80" ry="12" stroke="#2d2d2d" stroke-width="1.5" fill="none"/>
    <ellipse cx="0" cy="140" rx="40" ry="8" stroke="#2d2d2d" stroke-width="1.5" fill="none"/>
    
    <!-- Additional lines for density -->
    <ellipse cx="0" cy="-130" rx="60" ry="10" stroke="#3d3d3d" stroke-width="1" fill="none"/>
    <ellipse cx="0" cy="-110" rx="95" ry="13" stroke="#3d3d3d" stroke-width="1" fill="none"/>
    <ellipse cx="0" cy="-90" rx="120" ry="14.5" stroke="#3d3d3d" stroke-width="1" fill="none"/>
    <ellipse cx="0" cy="-70" rx="136" ry="15" stroke="#3d3d3d" stroke-width="1" fill="none"/>
    <ellipse cx="0" cy="-50" rx="145" ry="14.5" stroke="#3d3d3d" stroke-width="1" fill="none"/>
    <ellipse cx="0" cy="-30" rx="149" ry="13.5" stroke="#3d3d3d" stroke-width="1" fill="none"/>
    <ellipse cx="0" cy="-10" rx="150" ry="12.5" stroke="#3d3d3d" stroke-width="1" fill="none"/>
    <ellipse cx="0" cy="10" rx="150" ry="12.5" stroke="#3d3d3d" stroke-width="1" fill="none"/>
    <ellipse cx="0" cy="30" rx="149" ry="13.5" stroke="#3d3d3d" stroke-width="1" fill="none"/>
    <ellipse cx="0" cy="50" rx="145" ry="14.5" stroke="#3d3d3d" stroke-width="1" fill="none"/>
    <ellipse cx="0" cy="70" rx="136" ry="15" stroke="#3d3d3d" stroke-width="1" fill="none"/>
    <ellipse cx="0" cy="90" rx="120" ry="14.5" stroke="#3d3d3d" stroke-width="1" fill="none"/>
    <ellipse cx="0" cy="110" rx="95" ry="13" stroke="#3d3d3d" stroke-width="1" fill="none"/>
    <ellipse cx="0" cy="130" rx="60" ry="10" stroke="#3d3d3d" stroke-width="1" fill="none"/>
  </g>
</svg>
