<svg width="800" height="400" viewBox="0 0 800 400" fill="none" xmlns="http://www.w3.org/2000/svg">
  <!-- World map made of dots -->
  <g fill="#333">
    <!-- North America -->
    <circle cx="120" cy="100" r="3"/><circle cx="130" cy="95" r="3"/><circle cx="140" cy="90" r="3"/>
    <circle cx="150" cy="95" r="3"/><circle cx="160" cy="100" r="3"/><circle cx="170" cy="105" r="3"/>
    <circle cx="125" cy="110" r="3"/><circle cx="135" cy="115" r="3"/><circle cx="145" cy="110" r="3"/>
    <circle cx="155" cy="115" r="3"/><circle cx="165" cy="120" r="3"/><circle cx="175" cy="115" r="3"/>
    <circle cx="130" cy="125" r="3"/><circle cx="140" cy="130" r="3"/><circle cx="150" cy="135" r="3"/>
    <circle cx="160" cy="130" r="3"/><circle cx="170" cy="135" r="3"/><circle cx="180" cy="130" r="3"/>
    <circle cx="135" cy="145" r="3"/><circle cx="145" cy="150" r="3"/><circle cx="155" cy="155" r="3"/>
    <circle cx="165" cy="150" r="3"/><circle cx="175" cy="145" r="3"/><circle cx="185" cy="150" r="3"/>
    <circle cx="140" cy="165" r="3"/><circle cx="150" cy="170" r="3"/><circle cx="160" cy="175" r="3"/>
    <circle cx="170" cy="170" r="3"/><circle cx="180" cy="165" r="3"/>
    
    <!-- South America -->
    <circle cx="200" cy="220" r="3"/><circle cx="210" cy="225" r="3"/><circle cx="205" cy="235" r="3"/>
    <circle cx="215" cy="240" r="3"/><circle cx="210" cy="250" r="3"/><circle cx="220" cy="255" r="3"/>
    <circle cx="215" cy="265" r="3"/><circle cx="225" cy="270" r="3"/><circle cx="220" cy="280" r="3"/>
    <circle cx="210" cy="290" r="3"/><circle cx="215" cy="300" r="3"/><circle cx="205" cy="310" r="3"/>
    <circle cx="200" cy="320" r="3"/>
    
    <!-- Europe -->
    <circle cx="380" cy="90" r="3"/><circle cx="390" cy="85" r="3"/><circle cx="400" cy="90" r="3"/>
    <circle cx="410" cy="95" r="3"/><circle cx="420" cy="90" r="3"/><circle cx="430" cy="95" r="3"/>
    <circle cx="385" cy="100" r="3"/><circle cx="395" cy="105" r="3"/><circle cx="405" cy="100" r="3"/>
    <circle cx="415" cy="105" r="3"/><circle cx="425" cy="110" r="3"/><circle cx="435" cy="105" r="3"/>
    <circle cx="390" cy="115" r="3"/><circle cx="400" cy="120" r="3"/><circle cx="410" cy="115" r="3"/>
    <circle cx="420" cy="120" r="3"/><circle cx="430" cy="125" r="3"/>
    <circle cx="395" cy="130" r="3"/><circle cx="405" cy="135" r="3"/><circle cx="415" cy="130" r="3"/>
    
    <!-- Africa -->
    <circle cx="400" cy="180" r="3"/><circle cx="410" cy="175" r="3"/><circle cx="420" cy="180" r="3"/>
    <circle cx="430" cy="185" r="3"/><circle cx="440" cy="180" r="3"/>
    <circle cx="405" cy="195" r="3"/><circle cx="415" cy="200" r="3"/><circle cx="425" cy="195" r="3"/>
    <circle cx="435" cy="200" r="3"/><circle cx="445" cy="205" r="3"/>
    <circle cx="410" cy="215" r="3"/><circle cx="420" cy="220" r="3"/><circle cx="430" cy="215" r="3"/>
    <circle cx="440" cy="220" r="3"/><circle cx="450" cy="225" r="3"/>
    <circle cx="415" cy="235" r="3"/><circle cx="425" cy="240" r="3"/><circle cx="435" cy="235" r="3"/>
    <circle cx="445" cy="240" r="3"/>
    <circle cx="420" cy="255" r="3"/><circle cx="430" cy="260" r="3"/><circle cx="440" cy="255" r="3"/>
    <circle cx="425" cy="275" r="3"/><circle cx="435" cy="280" r="3"/>
    
    <!-- Asia -->
    <circle cx="500" cy="100" r="3"/><circle cx="510" cy="95" r="3"/><circle cx="520" cy="100" r="3"/>
    <circle cx="530" cy="105" r="3"/><circle cx="540" cy="100" r="3"/><circle cx="550" cy="95" r="3"/>
    <circle cx="560" cy="100" r="3"/><circle cx="570" cy="105" r="3"/><circle cx="580" cy="100" r="3"/>
    <circle cx="505" cy="115" r="3"/><circle cx="515" cy="120" r="3"/><circle cx="525" cy="115" r="3"/>
    <circle cx="535" cy="120" r="3"/><circle cx="545" cy="125" r="3"/><circle cx="555" cy="120" r="3"/>
    <circle cx="565" cy="115" r="3"/><circle cx="575" cy="120" r="3"/>
    <circle cx="510" cy="135" r="3"/><circle cx="520" cy="140" r="3"/><circle cx="530" cy="135" r="3"/>
    <circle cx="540" cy="140" r="3"/><circle cx="550" cy="145" r="3"/><circle cx="560" cy="140" r="3"/>
    <circle cx="570" cy="135" r="3"/>
    <circle cx="515" cy="155" r="3"/><circle cx="525" cy="160" r="3"/><circle cx="535" cy="155" r="3"/>
    <circle cx="545" cy="160" r="3"/><circle cx="555" cy="165" r="3"/><circle cx="565" cy="160" r="3"/>
    <circle cx="520" cy="175" r="3"/><circle cx="530" cy="180" r="3"/><circle cx="540" cy="175" r="3"/>
    <circle cx="550" cy="180" r="3"/><circle cx="560" cy="185" r="3"/>
    
    <!-- India highlighted -->
    <circle cx="530" cy="195" r="4" fill="#555"/><circle cx="540" cy="200" r="4" fill="#555"/>
    <circle cx="535" cy="210" r="4" fill="#555"/><circle cx="545" cy="215" r="4" fill="#555"/>
    <circle cx="540" cy="225" r="4" fill="#555"/><circle cx="550" cy="230" r="4" fill="#555"/>
    <circle cx="545" cy="240" r="4" fill="#555"/>
    
    <!-- Southeast Asia -->
    <circle cx="580" cy="190" r="3"/><circle cx="590" cy="195" r="3"/><circle cx="600" cy="200" r="3"/>
    <circle cx="610" cy="195" r="3"/><circle cx="620" cy="200" r="3"/>
    <circle cx="585" cy="210" r="3"/><circle cx="595" cy="215" r="3"/><circle cx="605" cy="220" r="3"/>
    <circle cx="615" cy="215" r="3"/>
    
    <!-- Australia -->
    <circle cx="620" cy="280" r="3"/><circle cx="630" cy="275" r="3"/><circle cx="640" cy="280" r="3"/>
    <circle cx="650" cy="285" r="3"/><circle cx="660" cy="280" r="3"/>
    <circle cx="625" cy="295" r="3"/><circle cx="635" cy="300" r="3"/><circle cx="645" cy="295" r="3"/>
    <circle cx="655" cy="300" r="3"/><circle cx="665" cy="295" r="3"/>
    <circle cx="630" cy="315" r="3"/><circle cx="640" cy="320" r="3"/><circle cx="650" cy="315" r="3"/>
    <circle cx="660" cy="320" r="3"/>
  </g>
</svg>
