<?xml version="1.0" encoding="UTF-8" standalone="no"?>
<svg xmlns="http://www.w3.org/2000/svg" xmlns:xlink="http://www.w3.org/1999/xlink" version="1.1" width="619.90937" height="299.19542" viewBox="413.73983 219.25874 619.90937 299.19542"><g fill="#bfbfbf" fill-rule="nonzero" stroke="none" stroke-width="none" stroke-linecap="butt" stroke-linejoin="miter" stroke-miterlimit="10" font-family="none" font-weight="none" font-size="none"><g id="Group-1"><g id="Group-1-1" stroke="none" stroke-width="1"><path d="M666.7434,302.62894l-36.21292,18.10291l-5.75403,-26.32848l34.93768,-24.31521zM735.97343,266.24735l-34.93382,17.18747l-8.09197,-39.85756l34.92996,-24.31852zM781.5613,300.6223l-37.49203,10.96523l-8.09584,-45.15776l35.78398,-16.81931z" id="CompoundPath-1"/><path d="M828.63695,347.42517l-38.98754,3.10781l-8.51706,-52.29212l37.70071,-7.67499zM753.86929,355.10348l-37.70843,6.39804l-7.24181,-39.12456l36.42933,-13.16424z" id="CompoundPath-1-1"/><path d="M800.09091,401.53819l-38.97594,-0.91211l-7.88716,-45.89076l37.69685,-5.48261zM709.13158,322.73517l-36.00039,12.43124l-6.60033,-32.90231l35.14637,-19.20407zM680.37687,368.44019l-37.49203,5.85741l-6.39166,-26.32848l36.85441,-12.25213z" id="CompoundPath-1-2"/><path d="M724.46923,401.17003h-37.91711l-6.81673,-33.27379l37.06695,-6.21561zM649.27649,400.80519l-38.55473,-1.4627l-5.54149,-20.83923l37.49203,-4.75624zM637.55589,347.96912l-36.638,11.15096l-6.17525,-21.9404l36.00039,-16.27205z" id="CompoundPath-1-3"/><path d="M606.03429,379.41537l-37.9171,2.00996l-4.68747,-15.72147l37.27563,-6.7662z" id="Path-1"/></g><path d="M532.37958,420.82186h8.45908v14.32511h0.16617c0.84243,-1.25042 1.73896,-2.40466 2.57753,-3.55889l8.57115,-10.76622h10.47629l-12.49348,13.79774l13.16588,18.60374h-9.97005l-9.24355,-13.99343l-3.24993,3.41295v10.57385h-8.45908zM619.0572,439.5251h-13.89238v7.68826h15.51541v6.0133h-24.08656v-32.40811h23.3021v6.01329h-14.73095v6.7264h13.89238zM656.32509,421.24972c2.74369,-0.38143 6.83606,-0.66998 11.37281,-0.66998c5.60332,0 9.52179,0.72305 12.21139,2.55059c2.24133,1.5423 3.4702,3.7977 3.4702,6.77947c0,4.13269 -3.41609,6.97515 -6.66602,7.98013v0.14263c2.63163,0.90879 4.0885,3.08128 5.04299,6.05973c1.17476,3.65507 2.34953,7.88395 3.07989,9.13437h-8.73731c-0.6183,-0.91211 -1.51097,-3.55557 -2.63163,-7.54564c-1.0086,-4.03982 -2.6355,-5.14762 -6.10569,-5.19074h-2.57753v12.74301h-8.45909zM664.78418,435.19672h3.36199c4.25853,0 6.77809,-1.82754 6.77809,-4.66337c0,-2.98177 -2.35339,-4.47763 -6.27572,-4.52075c-2.07516,0 -3.24993,0.14593 -3.86436,0.24212zM728.6582,444.90821l-2.68573,8.31845h-8.85325l11.53898,-32.40811h11.19892l11.70515,32.40811h-9.18558l-2.91373,-8.31845zM738.23795,439.42891l-2.34568,-6.87233c-0.6724,-1.92372 -1.3448,-4.3317 -1.90513,-6.25211h-0.1082c-0.5642,1.92041 -1.11679,4.3715 -1.73509,6.25211l-2.24133,6.87233zM786.43426,420.82186h8.57115v26.24888h15.01305v6.1526h-23.5842zM854.01033,444.90821l-2.68572,8.31845h-8.85325l11.53898,-32.40811h11.19892l11.70515,32.40811h-9.18558l-2.91373,-8.31845zM863.58236,439.42891l-2.34953,-6.87233c-0.6724,-1.92372 -1.3448,-4.3317 -1.90127,-6.25211h-0.11206c-0.5642,1.92041 -1.1168,4.3715 -1.7351,6.25211l-2.24133,6.87233z" id="CompoundPath-1-4" stroke="none" stroke-width="1"/><path d="M415.99275,507.97981c2.97942,1.31012 7.55482,2.61693 12.27708,2.61693c5.0855,0 7.77123,-1.80764 7.77123,-4.5506c0,-2.62024 -2.32634,-4.1161 -8.2079,-5.92374c-8.13448,-2.42456 -13.44024,-6.29191 -13.44024,-12.40471c0,-7.17085 6.97517,-12.65345 18.52188,-12.65345c5.52217,0 9.58748,0.99835 12.49347,2.12273l-2.46932,7.67167c-3.192,-1.32579 -6.69447,-2.0087 -10.24056,-1.99669c-4.79567,0 -7.12202,1.86734 -7.12202,4.04977c0,2.68658 2.76302,3.86735 9.08125,5.92706c8.64458,2.73965 12.71375,6.60699 12.71375,12.52742c0,7.04481 -6.31823,13.03489 -19.75848,13.03489c-5.59173,0 -11.1139,-1.24379 -13.87306,-2.55723zM463.48961,483.72431h-13.15041v-7.98014h37.63114v7.98014h-13.36682v34.04328h-11.11391zM499.21949,506.98147l-3.48951,10.78612h-11.47716l14.96281,-42.02342h14.52999l15.18694,42.02342h-11.91383l-3.77934,-10.78612zM511.63955,499.867l-3.05285,-8.91546c-0.87334,-2.49421 -1.74282,-5.60865 -2.46932,-8.10286h-0.14684c-0.7265,2.49421 -1.45301,5.67499 -2.25293,8.10286l-2.906,8.91546zM534.65182,476.30471c3.55908,-0.4942 8.86098,-0.87895 14.7464,-0.87895c7.265,0 12.34663,0.93865 15.83615,3.31014c2.906,1.99669 4.50585,4.91876 4.50585,8.78611c0,5.35989 -4.43242,9.04149 -8.64458,10.3483v0.18906c3.41609,1.18409 5.30191,3.99007 6.5385,7.8541c1.52642,4.74629 3.05285,10.2289 3.99575,11.84748h-11.33417c-0.79992,-1.18077 -1.95923,-4.61693 -3.41223,-9.78777c-1.30616,-5.23717 -3.41223,-6.67333 -7.91808,-6.73303h-3.3388v16.52412h-10.97479zM545.61887,494.38439h4.359c5.52217,0 8.78756,-2.36817 8.78756,-6.04646c0,-3.86735 -3.05285,-5.7977 -8.13448,-5.86404c-2.68573,0 -4.21216,0.18905 -5.01208,0.31509zM586.35697,483.72431h-13.15042v-7.98014h37.63115v7.98014h-13.36683v34.04328h-11.1139zM626.94822,475.74417v24.18917c0,7.23718 3.19583,10.91216 8.86098,10.91216c5.812,0 9.00782,-3.49587 9.00782,-10.91216v-24.18917h11.04048v23.56562c0,12.96855 -7.62825,19.14105 -20.41542,19.14105c-12.34663,0 -19.61163,-5.86736 -19.61163,-19.27041v-23.43626zM664.63347,476.30471c3.41223,-0.4942 8.21176,-0.87895 14.96667,-0.87895c6.82833,0 11.69356,1.1277 14.96668,3.37315c3.1224,2.12273 5.23234,5.60534 5.23234,9.72808c0,4.11279 -1.59985,7.60533 -4.50585,9.97682c-3.77934,3.05806 -9.37107,4.42457 -15.90957,4.42457c-1.453,0 -2.75916,-0.06302 -3.77935,-0.18574v15.02495h-10.96705zM675.60053,495.38274c0.94677,0.19237 2.10607,0.24876 3.70592,0.24876c5.88156,0 9.51792,-2.55723 9.51792,-6.85576c0,-3.86735 -3.12627,-6.16918 -8.64458,-6.16918c-2.25292,0 -3.77934,0.18905 -4.57926,0.36816zM761.30045,501.68128c-0.27128,-5.75616 -0.41685,-11.51618 -0.43667,-17.27703h-0.22027c-1.58011,5.48242 -3.39761,10.91241 -5.44875,16.27868l-5.95498,16.39145h-8.64071l-5.23235,-16.27205c-1.75778,-5.40741 -3.23669,-10.87875 -4.43242,-16.39808h-0.14684c-0.28596,5.67498 -0.50624,12.15926 -0.87721,17.39975l-0.86175,15.96359h-10.24829l3.12627,-42.02342h14.74253l4.79181,14.0266c1.53028,4.86569 3.05672,10.09955 4.1426,15.02495h0.22027c1.37957,-4.86569 3.04898,-10.41465 4.64883,-15.08797l5.23235,-13.96689h14.44884l2.68573,42.02673h-10.82408zM791.64342,475.74417v42.02342h-11.11777v-42.02342zM800.79036,507.97981c2.97555,1.31012 7.55482,2.61693 12.27321,2.61693c5.0855,0 7.7751,-1.80764 7.7751,-4.5506c0,-2.62024 -2.32635,-4.1161 -8.21177,-5.92374c-8.13062,-2.42456 -13.43638,-6.29191 -13.43638,-12.40471c0,-7.17085 6.97517,-12.65345 18.52188,-12.65345c5.52604,0 9.59134,0.99835 12.49734,2.12273l-2.48092,7.67167c-3.18987,-1.32763 -6.6916,-2.01065 -10.23669,-1.99669c-4.79181,0 -7.11815,1.86734 -7.11815,4.04977c0,2.68658 2.76302,3.86735 9.08125,5.92706c8.64844,2.73965 12.71761,6.60699 12.71761,12.52742c0,7.04481 -6.32596,13.03489 -19.75848,13.03489c-5.59946,0 -11.11777,-1.24379 -13.88078,-2.55723zM839.2021,507.97981c2.97942,1.31012 7.55483,2.61693 12.28094,2.61693c5.07777,0 7.77896,-1.80764 7.77896,-4.5506c0,-2.62024 -2.33021,-4.1161 -8.21177,-5.92374c-8.13062,-2.42456 -13.44411,-6.29191 -13.44411,-12.40471c0,-7.17085 6.97904,-12.65345 18.52961,-12.65345c5.52217,0 9.58362,0.99835 12.48961,2.12273l-2.46932,7.67167c-1.9631,-0.80929 -5.44875,-1.99669 -10.24056,-1.99669c-4.79181,0 -7.11815,1.86734 -7.11815,4.04977c0,2.68658 2.75529,3.86735 9.08125,5.92706c8.64071,2.73965 12.70988,6.60699 12.70988,12.52742c0,7.04481 -6.31823,13.03489 -19.75848,13.03489c-5.58787,0 -11.11777,-1.24379 -13.87306,-2.55723zM888.36451,475.74417v42.02342h-11.11777v-42.02342zM941.96706,496.31807c0,13.77784 -9.74205,22.13609 -24.05178,22.13609c-14.52999,0 -23.02773,-9.4163 -23.02773,-21.3865c0,-12.59707 9.37882,-22.01006 23.82766,-22.01006c15.04009,0 23.25185,9.66506 23.25185,21.26047zM906.59269,496.8786c0,8.22889 4.49812,14.0266 11.90996,14.0266c7.48914,0 11.76698,-6.1128 11.76698,-14.28199c0,-7.54232 -4.21215,-14.0266 -11.83654,-14.0266c-7.48527,0 -11.8404,6.11611 -11.8404,14.28199zM948.41281,517.76759v-42.02342h12.93788l10.16713,15.39974c3.0276,4.64772 5.69715,9.46071 7.9915,14.40803h0.22027c-0.7265,-5.55226 -0.9429,-11.22725 -0.9429,-17.51915v-12.2853h10.16713v42.02341h-11.624l-10.46082,-16.21566c-2.906,-4.4909 -6.09796,-9.91049 -8.49773,-14.83589l-0.22027,0.06302c0.29369,5.54895 0.43667,11.47269 0.43667,18.32844v12.65678z" id="CompoundPath-1-5" stroke="none" stroke-width="1"/><path d="M1000.04066,489.35949c0,-7.89687 7.45861,-14.29855 16.65927,-14.29855c9.20066,0 16.65927,6.40168 16.65927,14.29855c0,7.89687 -7.45861,14.29855 -16.65927,14.29855c-9.20066,0 -16.65927,-6.40168 -16.65927,-14.29855z" id="Shape-1" stroke="#000000" stroke-width="0.58"/><path d="M1010.67153,497.09751v-14.24551h7.35774c1.48005,0 2.60458,0.12936 3.37359,0.38143c0.76901,0.25871 1.38344,0.70979 1.84716,1.35656c0.46372,0.64677 0.69173,1.36318 0.69173,2.14594c0,1.01161 -0.38257,1.86403 -1.14385,2.55723c-0.76128,0.6932 -1.9399,1.13433 -3.53203,1.32007c0.57965,0.23881 1.02405,0.47762 1.32547,0.70979c0.64148,0.50415 1.2482,1.13765 1.82398,1.89387l2.88667,3.8773h-2.76302l-2.19496,-2.96519c-0.64148,-0.85573 -1.1709,-1.50912 -1.58439,-1.96352c-0.41349,-0.4544 -0.78832,-0.7695 -1.11293,-0.95192c-0.3077,-0.17371 -0.6474,-0.30155 -1.00473,-0.37811c-0.40354,-0.05651 -0.81244,-0.07983 -1.22114,-0.06965h-2.54662v6.32507h-2.20268zM1012.86649,489.13727h4.72225c1.00473,0 1.7892,-0.08624 2.35339,-0.26866c0.5303,-0.15225 0.98512,-0.45379 1.29069,-0.85572c0.29024,-0.3791 0.4435,-0.82335 0.44054,-1.27696c0,-0.6733 -0.28596,-1.2272 -0.85789,-1.6617c-0.57193,-0.4345 -1.46846,-0.65008 -2.69733,-0.65008h-5.25166z" id="CompoundPath-1-6" stroke="none" stroke-width="1"/></g></g></svg>